<?xml version="1.0" standalone="no"?>
<!DOCTYPE svg PUBLIC "-//W3C//DTD SVG 20010904//EN"
 "http://www.w3.org/TR/2001/REC-SVG-20010904/DTD/svg10.dtd">
<svg version="1.0" xmlns="http://www.w3.org/2000/svg"
 width="372.000000pt" height="403.000000pt" viewBox="0 0 372.000000 403.000000"
 preserveAspectRatio="xMidYMid meet">

<g transform="translate(0.000000,403.000000) scale(0.100000,-0.100000)"
fill="#000000" stroke="none">
<path d="M135 4001 c-45 -11 -82 -38 -107 -80 l-23 -36 0 -1870 0 -1870 23
-37 c13 -20 40 -47 60 -60 l37 -23 1730 0 1730 0 37 23 c20 13 47 40 60 60
l23 37 0 1870 0 1870 -23 37 c-13 20 -40 47 -60 60 l-37 23 -1710 2 c-941 0
-1724 -2 -1740 -6z m2918 -356 c99 -18 192 -45 264 -78 l50 -22 -47 -205 -46
-205 -86 -3 -85 -3 -6 30 c-8 37 -65 81 -146 112 -42 17 -79 22 -151 23 -109
1 -149 -14 -176 -66 -34 -65 6 -94 211 -152 159 -45 240 -82 298 -135 156
-144 106 -423 -114 -638 -123 -119 -291 -192 -498 -215 -203 -22 -416 17 -648
119 -10 4 -13 -10 -13 -51 l0 -56 -264 0 -264 0 -6 78 c-3 42 -9 107 -12 145
l-6 67 -143 0 -144 0 -72 -137 c-40 -76 -77 -141 -83 -145 -16 -11 -516 -10
-516 1 0 5 190 350 423 767 l424 759 261 3 c144 1 262 1 262 -1 0 -7 130
-1372 132 -1392 2 -11 22 68 46 175 24 107 46 203 48 213 5 14 18 17 85 17 67
0 81 -3 85 -17 30 -95 120 -161 258 -190 112 -23 206 -4 256 53 68 78 32 112
-192 184 -90 29 -183 63 -208 75 -146 74 -200 223 -151 414 32 121 73 195 155
277 103 103 219 161 396 199 89 19 314 19 423 0z m-1648 -1745 c253 -29 390
-110 476 -284 143 -288 49 -683 -227 -959 -161 -162 -354 -251 -594 -277 -122
-12 -710 -13 -710 -1 0 10 337 1482 346 1514 5 16 29 17 312 17 169 0 348 -5
397 -10z m1629 -15 c320 -68 414 -312 251 -650 -74 -155 -203 -273 -365 -338
-78 -30 -202 -55 -325 -65 l-90 -7 -46 -200 c-25 -110 -49 -212 -52 -227 l-7
-28 -261 0 c-243 0 -260 1 -255 18 7 24 346 1498 346 1506 0 3 165 6 368 6
284 0 383 -4 436 -15z"/>
<path d="M1231 2928 c-33 -84 -61 -156 -61 -160 0 -5 29 -8 65 -8 l65 0 0 160
c0 88 -2 160 -3 160 -2 0 -32 -69 -66 -152z"/>
<path d="M1047 1144 c-48 -207 -85 -380 -82 -383 11 -11 159 20 209 44 60 28
124 92 155 153 68 134 100 338 67 425 -30 79 -96 122 -204 133 l-58 6 -87
-378z"/>
<path d="M2636 1391 c-15 -69 -30 -137 -33 -150 -6 -23 -4 -23 33 -17 65 13
135 57 166 105 33 53 35 89 7 125 -26 33 -54 48 -104 56 l-41 6 -28 -125z"/>
</g>
</svg>
